<svg id="goodipuse" data-name="goodipuse" xmlns="http://www.w3.org/2000/svg" viewBox="0 0 500 500"><defs><style>.cls-1{fill:#ddd;}.cls-2{fill:red;}.cls-3{fill:#ff9100;}.cls-4{fill:#d86d03;}</style></defs><circle class="cls-1" cx="250" cy="250" r="250"/><path class="cls-2" d="M12.114,200.864A79.992,79.992,0,1,0,88.41,70.5,249.77,249.77,0,0,0,12.114,200.864Z" transform="translate(-6 -6)"/><path class="cls-3" d="M307.323,302.87A499.214,499.214,0,0,0,29.888,149.252,250.179,250.179,0,0,0,137.542,476.2,502.542,502.542,0,0,1,307.323,302.87Z" transform="translate(-6 -6)"/><path class="cls-4" d="M404.185,457.35a500.2,500.2,0,0,0-96.862-154.48A502.542,502.542,0,0,0,137.542,476.2,250.148,250.148,0,0,0,404.185,457.35Z" transform="translate(-6 -6)"/><circle cx="333" cy="120" r="32"/></svg>